<svg xmlns="http://www.w3.org/2000/svg" viewBox="0 0 512 512">
  <rect width="512" height="512" rx="128" fill="#09090b"/>
  <path d="M256 96c-88.4 0-160 71.6-160 160s71.6 160 160 160 160-71.6 160-160S344.4 96 256 96zm0 288c-70.7 0-128-57.3-128-128s57.3-128 128-128 128 57.3 128 128-57.3 128-128 128z" fill="#10b981"/>
  <path d="M256 160v48c-26.5 0-48 21.5-48 48s21.5 48 48 48 48 21.5 48 48-21.5 48-48 48v48c53 0 96-43 96-96s-43-96-96-96-48-21.5-48-48 21.5-48 48-48v-48c-53 0-96 43-96 96s43 96 96 96z" fill="#fafafa"/>
</svg>
